<?xml version="1.0" encoding="UTF-8"?>
<svg id="Layer_1" data-name="Layer 1" xmlns="http://www.w3.org/2000/svg" viewBox="0 0 83 32">
  <defs>
    <style>
      .cls-1 {
        fill: #132c51;
      }

      .cls-1, .cls-2 {
        stroke-width: 0px;
      }

      .cls-2 {
        fill: #231f20;
      }
    </style>
  </defs>
  <path class="cls-1" d="m13.22,19.72c0-.53-.43-.97-.97-.97h-5.76C3,18.75.17,15.92.17,12.43v-5.35C.17,3.59,3,.76,6.49.76h12c3.49,0,6.32,2.83,6.32,6.32v3.14h-10.93v-.84c0-.54-.44-.98-.98-.98s-.98.44-.98.98v2c0,.55.34.83.95.83s5.71,0,5.71,0c3.49,0,6.24,2.83,6.24,6.32v6.33c0,3.49-2.83,6.32-6.32,6.32H6.46c-3.49,0-6.32-2.82-6.32-6.31v-4.31h11.12v1.67c0,.54.44.98.98.98s.98-.44.98-.98v-2.49h0Z"/>
  <path class="cls-1" d="m40.22,9.84c0-.54-.44-.98-.98-.98s-.98.44-.98.98v21.41h-10.49V.8h10.48v3.42l2.72-3.44h4.63c3.49-.01,6.32,2.82,6.32,6.31v24.16h-11.71V9.84h.01Z"/>
  <g>
    <path class="cls-1" d="m79.7,24.85c0,3.49-2.83,6.32-6.32,6.32h-12.02c-3.49,0-6.32-2.82-6.32-6.31l.02-17.78c0-3.49,2.83-6.32,6.32-6.32h12c3.49,0,6.32,2.83,6.32,6.32v7.31h-10.93v-4.56c0-.54-.44-.98-.98-.98s-.98.44-.98.98v12.29c0,.54.44.98.98.98s.98-.44.98-.98v-5.32h10.94v8.07-.04h0Z"/>
    <path class="cls-2" d="m80.98,2.3h.21c.23,0,.43-.09.43-.3,0-.16-.11-.31-.43-.31-.09,0-.16,0-.21.01v.6h0Zm0,.99h-.28v-1.78c.15-.02.29-.04.5-.04.27,0,.45.06.55.14.11.08.16.2.16.37,0,.23-.16.38-.35.43h0c.16.04.26.18.3.45.04.28.09.38.11.44h-.3c-.04-.06-.08-.22-.12-.45-.04-.23-.16-.31-.38-.31h-.2v.77h0Zm.3-2.28c-.7,0-1.28.6-1.28,1.35s.57,1.35,1.28,1.35c.71,0,1.28-.6,1.28-1.35s-.57-1.35-1.28-1.35h0Zm0-.25c.87,0,1.57.71,1.57,1.6s-.69,1.6-1.57,1.6-1.58-.7-1.58-1.6.71-1.6,1.58-1.6h0Z"/>
  </g>
</svg>